%TF.GenerationSoftware,KiCad,Pcbnew,7.0.7*%
%TF.CreationDate,2024-03-25T22:36:03+08:00*%
%TF.ProjectId,eins2440,65696e73-3234-4343-902e-6b696361645f,rev?*%
%TF.SameCoordinates,Original*%
%TF.FileFunction,Paste,Top*%
%TF.FilePolarity,Positive*%
%FSLAX46Y46*%
G04 Gerber Fmt 4.6, Leading zero omitted, Abs format (unit mm)*
G04 Created by KiCad (PCBNEW 7.0.7) date 2024-03-25 22:36:03*
%MOMM*%
%LPD*%
G01*
G04 APERTURE LIST*
G04 Aperture macros list*
%AMRoundRect*
0 Rectangle with rounded corners*
0 $1 Rounding radius*
0 $2 $3 $4 $5 $6 $7 $8 $9 X,Y pos of 4 corners*
0 Add a 4 corners polygon primitive as box body*
4,1,4,$2,$3,$4,$5,$6,$7,$8,$9,$2,$3,0*
0 Add four circle primitives for the rounded corners*
1,1,$1+$1,$2,$3*
1,1,$1+$1,$4,$5*
1,1,$1+$1,$6,$7*
1,1,$1+$1,$8,$9*
0 Add four rect primitives between the rounded corners*
20,1,$1+$1,$2,$3,$4,$5,0*
20,1,$1+$1,$4,$5,$6,$7,0*
20,1,$1+$1,$6,$7,$8,$9,0*
20,1,$1+$1,$8,$9,$2,$3,0*%
%AMFreePoly0*
4,1,9,3.862500,-0.866500,0.737500,-0.866500,0.737500,-0.450000,-0.737500,-0.450000,-0.737500,0.450000,0.737500,0.450000,0.737500,0.866500,3.862500,0.866500,3.862500,-0.866500,3.862500,-0.866500,$1*%
G04 Aperture macros list end*
%ADD10R,1.100000X2.000000*%
%ADD11RoundRect,0.200000X-0.200000X-0.275000X0.200000X-0.275000X0.200000X0.275000X-0.200000X0.275000X0*%
%ADD12RoundRect,0.200000X0.200000X0.275000X-0.200000X0.275000X-0.200000X-0.275000X0.200000X-0.275000X0*%
%ADD13RoundRect,0.250000X-0.650000X0.325000X-0.650000X-0.325000X0.650000X-0.325000X0.650000X0.325000X0*%
%ADD14RoundRect,0.225000X0.225000X0.250000X-0.225000X0.250000X-0.225000X-0.250000X0.225000X-0.250000X0*%
%ADD15RoundRect,0.200000X0.275000X-0.200000X0.275000X0.200000X-0.275000X0.200000X-0.275000X-0.200000X0*%
%ADD16RoundRect,0.225000X-0.225000X-0.250000X0.225000X-0.250000X0.225000X0.250000X-0.225000X0.250000X0*%
%ADD17R,0.300000X1.400000*%
%ADD18R,0.700000X1.000000*%
%ADD19R,0.700000X0.600000*%
%ADD20R,1.000000X0.750000*%
%ADD21R,1.400000X1.200000*%
%ADD22RoundRect,0.225000X-0.250000X0.225000X-0.250000X-0.225000X0.250000X-0.225000X0.250000X0.225000X0*%
%ADD23RoundRect,0.225000X0.250000X-0.225000X0.250000X0.225000X-0.250000X0.225000X-0.250000X-0.225000X0*%
%ADD24RoundRect,0.250000X0.650000X-0.325000X0.650000X0.325000X-0.650000X0.325000X-0.650000X-0.325000X0*%
%ADD25R,1.500000X2.000000*%
%ADD26R,3.800000X2.000000*%
%ADD27R,1.309599X0.456400*%
%ADD28R,1.340599X0.279400*%
%ADD29R,0.279400X1.340599*%
%ADD30R,1.150000X0.300000*%
%ADD31R,1.800000X1.000000*%
%ADD32R,1.000000X0.800000*%
%ADD33R,0.700000X1.500000*%
%ADD34RoundRect,0.218750X-0.256250X0.218750X-0.256250X-0.218750X0.256250X-0.218750X0.256250X0.218750X0*%
%ADD35RoundRect,0.250000X0.325000X0.650000X-0.325000X0.650000X-0.325000X-0.650000X0.325000X-0.650000X0*%
%ADD36RoundRect,0.200000X-0.275000X0.200000X-0.275000X-0.200000X0.275000X-0.200000X0.275000X0.200000X0*%
%ADD37RoundRect,0.218750X-0.218750X-0.256250X0.218750X-0.256250X0.218750X0.256250X-0.218750X0.256250X0*%
%ADD38C,0.365760*%
%ADD39R,0.800000X1.000000*%
%ADD40R,1.500000X0.700000*%
%ADD41RoundRect,0.250000X0.375000X0.625000X-0.375000X0.625000X-0.375000X-0.625000X0.375000X-0.625000X0*%
%ADD42R,0.279400X1.200899*%
%ADD43R,1.300000X0.900000*%
%ADD44FreePoly0,180.000000*%
G04 APERTURE END LIST*
D10*
%TO.C,D2*%
X102880000Y-100200000D03*
X104580000Y-100200000D03*
X106280000Y-100200000D03*
X106280000Y-95400000D03*
X104580000Y-95400000D03*
X102880000Y-95400000D03*
%TD*%
D11*
%TO.C,R47*%
X122635000Y-110700000D03*
X124285000Y-110700000D03*
%TD*%
D12*
%TO.C,R36*%
X174535000Y-94020000D03*
X172885000Y-94020000D03*
%TD*%
D13*
%TO.C,C8*%
X112455000Y-81625000D03*
X112455000Y-84575000D03*
%TD*%
D14*
%TO.C,C11*%
X110396850Y-95106299D03*
X108846850Y-95106299D03*
%TD*%
D15*
%TO.C,R48*%
X102880000Y-92575000D03*
X102880000Y-90925000D03*
%TD*%
D16*
%TO.C,C5*%
X108826850Y-99346299D03*
X110376850Y-99346299D03*
%TD*%
D17*
%TO.C,U6*%
X174550000Y-104650000D03*
X174050000Y-104650000D03*
X173550000Y-104650000D03*
X173050000Y-104650000D03*
X172550000Y-104650000D03*
X172550000Y-109050000D03*
X173050000Y-109050000D03*
X173550000Y-109050000D03*
X174050000Y-109050000D03*
X174550000Y-109050000D03*
%TD*%
D16*
%TO.C,C31*%
X172975000Y-100990000D03*
X174525000Y-100990000D03*
%TD*%
D12*
%TO.C,R10*%
X129326850Y-89116299D03*
X127676850Y-89116299D03*
%TD*%
D18*
%TO.C,U8*%
X133080000Y-83300000D03*
D19*
X133080000Y-81600000D03*
X131080000Y-81600000D03*
X131080000Y-83500000D03*
%TD*%
D12*
%TO.C,R28*%
X190445000Y-114020000D03*
X188795000Y-114020000D03*
%TD*%
%TO.C,R31*%
X166635000Y-89720000D03*
X164985000Y-89720000D03*
%TD*%
D20*
%TO.C,S4*%
X130750000Y-112415000D03*
X126250000Y-112415000D03*
X130750000Y-114565000D03*
X126250000Y-114565000D03*
%TD*%
D12*
%TO.C,R6*%
X109705000Y-108450000D03*
X108055000Y-108450000D03*
%TD*%
D21*
%TO.C,Y1*%
X117591850Y-107276299D03*
X119791850Y-107276299D03*
X119791850Y-105576299D03*
X117591850Y-105576299D03*
%TD*%
D16*
%TO.C,C4*%
X108806850Y-105136299D03*
X110356850Y-105136299D03*
%TD*%
D14*
%TO.C,C21*%
X110396850Y-93546299D03*
X108846850Y-93546299D03*
%TD*%
%TO.C,C18*%
X113605000Y-88450000D03*
X112055000Y-88450000D03*
%TD*%
D22*
%TO.C,C3*%
X115781850Y-105631299D03*
X115781850Y-107181299D03*
%TD*%
D12*
%TO.C,R33*%
X174535000Y-97510000D03*
X172885000Y-97510000D03*
%TD*%
D16*
%TO.C,C16*%
X108856850Y-96666299D03*
X110406850Y-96666299D03*
%TD*%
D15*
%TO.C,R49*%
X104580000Y-92575000D03*
X104580000Y-90925000D03*
%TD*%
D23*
%TO.C,C19*%
X122155000Y-84650000D03*
X122155000Y-83100000D03*
%TD*%
D12*
%TO.C,R8*%
X129316850Y-92196299D03*
X127666850Y-92196299D03*
%TD*%
D20*
%TO.C,S5*%
X137220000Y-112405000D03*
X132720000Y-112405000D03*
X137220000Y-114555000D03*
X132720000Y-114555000D03*
%TD*%
D23*
%TO.C,C2*%
X121601850Y-107211299D03*
X121601850Y-105661299D03*
%TD*%
D24*
%TO.C,C28*%
X183970000Y-105645000D03*
X183970000Y-102695000D03*
%TD*%
D16*
%TO.C,C33*%
X156616850Y-110306299D03*
X158166850Y-110306299D03*
%TD*%
D23*
%TO.C,C6*%
X112630000Y-107175000D03*
X112630000Y-105625000D03*
%TD*%
D25*
%TO.C,U9*%
X176830000Y-109820000D03*
X179130000Y-109820000D03*
D26*
X179130000Y-103520000D03*
D25*
X181430000Y-109820000D03*
%TD*%
D15*
%TO.C,R23*%
X178020000Y-116785000D03*
X178020000Y-115135000D03*
%TD*%
D16*
%TO.C,C32*%
X172985000Y-92440000D03*
X174535000Y-92440000D03*
%TD*%
%TO.C,C36*%
X130925000Y-85600000D03*
X132475000Y-85600000D03*
%TD*%
D24*
%TO.C,C25*%
X183970000Y-110325000D03*
X183970000Y-107375000D03*
%TD*%
D12*
%TO.C,R9*%
X129316850Y-90636299D03*
X127666850Y-90636299D03*
%TD*%
D23*
%TO.C,C1*%
X114180000Y-107175000D03*
X114180000Y-105625000D03*
%TD*%
D14*
%TO.C,C27*%
X173045000Y-111030000D03*
X171495000Y-111030000D03*
%TD*%
D27*
%TO.C,U2*%
X143011050Y-108282599D03*
X143011050Y-107482499D03*
X143011050Y-106682399D03*
X143011050Y-105882299D03*
X143011050Y-105082199D03*
X143011050Y-104282099D03*
X143011050Y-103481999D03*
X143011050Y-102681899D03*
X143011050Y-101881799D03*
X143011050Y-101081699D03*
X143011050Y-100281599D03*
X143011050Y-99481499D03*
X143011050Y-98681399D03*
X143011050Y-97881299D03*
X143011050Y-97081199D03*
X143011050Y-96281099D03*
X143011050Y-95480999D03*
X143011050Y-94680899D03*
X143011050Y-93880799D03*
X143011050Y-93080699D03*
X143011050Y-92280599D03*
X143011050Y-91480499D03*
X143011050Y-90680399D03*
X143011050Y-89880299D03*
X143011050Y-89080199D03*
X143011050Y-88280099D03*
X143011050Y-87479999D03*
X131682650Y-87479999D03*
X131682650Y-88280099D03*
X131682650Y-89080199D03*
X131682650Y-89880299D03*
X131682650Y-90680399D03*
X131682650Y-91480499D03*
X131682650Y-92280599D03*
X131682650Y-93080699D03*
X131682650Y-93880799D03*
X131682650Y-94680899D03*
X131682650Y-95480999D03*
X131682650Y-96281099D03*
X131682650Y-97081199D03*
X131682650Y-97881299D03*
X131682650Y-98681399D03*
X131682650Y-99481499D03*
X131682650Y-100281599D03*
X131682650Y-101081699D03*
X131682650Y-101881799D03*
X131682650Y-102681899D03*
X131682650Y-103481999D03*
X131682650Y-104282099D03*
X131682650Y-105082199D03*
X131682650Y-105882299D03*
X131682650Y-106682399D03*
X131682650Y-107482499D03*
X131682650Y-108282599D03*
%TD*%
D28*
%TO.C,U10*%
X169334851Y-100523799D03*
X169334851Y-100023800D03*
X169334851Y-99523798D03*
X169334851Y-99023799D03*
X169334851Y-98523800D03*
X169334851Y-98023799D03*
X169334851Y-97523799D03*
X169334851Y-97023798D03*
X169334851Y-96523799D03*
X169334851Y-96023800D03*
X169334851Y-95523798D03*
X169334851Y-95023799D03*
D29*
X167909350Y-93598298D03*
X167409351Y-93598298D03*
X166909349Y-93598298D03*
X166409350Y-93598298D03*
X165909351Y-93598298D03*
X165409350Y-93598298D03*
X164909350Y-93598298D03*
X164409349Y-93598298D03*
X163909350Y-93598298D03*
X163409351Y-93598298D03*
X162909349Y-93598298D03*
X162409350Y-93598298D03*
D28*
X160983849Y-95023799D03*
X160983849Y-95523798D03*
X160983849Y-96023800D03*
X160983849Y-96523799D03*
X160983849Y-97023798D03*
X160983849Y-97523799D03*
X160983849Y-98023799D03*
X160983849Y-98523800D03*
X160983849Y-99023799D03*
X160983849Y-99523798D03*
X160983849Y-100023800D03*
X160983849Y-100523799D03*
D29*
X162409350Y-101949300D03*
X162909349Y-101949300D03*
X163409351Y-101949300D03*
X163909350Y-101949300D03*
X164409349Y-101949300D03*
X164909350Y-101949300D03*
X165409350Y-101949300D03*
X165909351Y-101949300D03*
X166409350Y-101949300D03*
X166909349Y-101949300D03*
X167409351Y-101949300D03*
X167909350Y-101949300D03*
%TD*%
D11*
%TO.C,R27*%
X129085000Y-110710000D03*
X130735000Y-110710000D03*
%TD*%
D14*
%TO.C,C40*%
X162906850Y-91686299D03*
X161356850Y-91686299D03*
%TD*%
D30*
%TO.C,J5*%
X189400000Y-110830000D03*
X189400000Y-110030000D03*
X189400000Y-108730000D03*
X189400000Y-107730000D03*
X189400000Y-107230000D03*
X189400000Y-106230000D03*
X189400000Y-104930000D03*
X189400000Y-104130000D03*
X189400000Y-104430000D03*
X189400000Y-105230000D03*
X189400000Y-105730000D03*
X189400000Y-106730000D03*
X189400000Y-108230000D03*
X189400000Y-109230000D03*
X189400000Y-109730000D03*
X189400000Y-110530000D03*
%TD*%
D16*
%TO.C,C38*%
X172765000Y-87660000D03*
X174315000Y-87660000D03*
%TD*%
D31*
%TO.C,Y2*%
X109581850Y-100996299D03*
X109581850Y-103496299D03*
%TD*%
D14*
%TO.C,C10*%
X125355000Y-88450000D03*
X123805000Y-88450000D03*
%TD*%
D11*
%TO.C,R15*%
X107735000Y-87260000D03*
X109385000Y-87260000D03*
%TD*%
%TO.C,R46*%
X125675000Y-110710000D03*
X127325000Y-110710000D03*
%TD*%
D12*
%TO.C,R34*%
X174535000Y-95970000D03*
X172885000Y-95970000D03*
%TD*%
D20*
%TO.C,S3*%
X124280000Y-112415000D03*
X119780000Y-112415000D03*
X124280000Y-114565000D03*
X119780000Y-114565000D03*
%TD*%
D32*
%TO.C,SW3*%
X179980000Y-114075000D03*
X179980000Y-116285000D03*
X187280000Y-114075000D03*
X187280000Y-116285000D03*
D33*
X181380000Y-113425000D03*
X184380000Y-113425000D03*
X185880000Y-113425000D03*
%TD*%
D34*
%TO.C,D5*%
X176400000Y-112142500D03*
X176400000Y-113717500D03*
%TD*%
%TO.C,D6*%
X178020000Y-112132500D03*
X178020000Y-113707500D03*
%TD*%
D11*
%TO.C,R29*%
X132655000Y-110700000D03*
X134305000Y-110700000D03*
%TD*%
D35*
%TO.C,C37*%
X174315000Y-89720000D03*
X171365000Y-89720000D03*
%TD*%
D14*
%TO.C,C9*%
X119355000Y-88450000D03*
X117805000Y-88450000D03*
%TD*%
D36*
%TO.C,R26*%
X134590000Y-81605000D03*
X134590000Y-83255000D03*
%TD*%
D20*
%TO.C,S1*%
X125005000Y-83750000D03*
X129505000Y-83750000D03*
X125005000Y-81600000D03*
X129505000Y-81600000D03*
%TD*%
D24*
%TO.C,C22*%
X120178150Y-84658701D03*
X120178150Y-81708701D03*
%TD*%
D12*
%TO.C,R39*%
X109705000Y-106850000D03*
X108055000Y-106850000D03*
%TD*%
D11*
%TO.C,R30*%
X169485000Y-102620000D03*
X171135000Y-102620000D03*
%TD*%
D12*
%TO.C,R35*%
X174535000Y-99410000D03*
X172885000Y-99410000D03*
%TD*%
D21*
%TO.C,Y3*%
X164469350Y-105946299D03*
X166669350Y-105946299D03*
X166669350Y-104246299D03*
X164469350Y-104246299D03*
%TD*%
D20*
%TO.C,S6*%
X143680000Y-112385000D03*
X139180000Y-112385000D03*
X143680000Y-114535000D03*
X139180000Y-114535000D03*
%TD*%
D15*
%TO.C,R22*%
X176400000Y-116795000D03*
X176400000Y-115145000D03*
%TD*%
D37*
%TO.C,D7*%
X188872500Y-115630000D03*
X190447500Y-115630000D03*
%TD*%
D11*
%TO.C,R32*%
X161645000Y-89720000D03*
X163295000Y-89720000D03*
%TD*%
D23*
%TO.C,C26*%
X185950000Y-110325000D03*
X185950000Y-108775000D03*
%TD*%
D22*
%TO.C,C30*%
X162610000Y-104381299D03*
X162610000Y-105931299D03*
%TD*%
D15*
%TO.C,R50*%
X106280000Y-92575000D03*
X106280000Y-90925000D03*
%TD*%
D38*
%TO.C,U1*%
X124931850Y-90296302D03*
X124931850Y-91096302D03*
X124931850Y-91896301D03*
X124931850Y-92696301D03*
X124931850Y-93496301D03*
X124931850Y-94296301D03*
X124931850Y-95096301D03*
X124931850Y-95896301D03*
X124931850Y-96696301D03*
X124931850Y-97496301D03*
X124931850Y-98296301D03*
X124931850Y-99096301D03*
X124931850Y-99896301D03*
X124931850Y-100696300D03*
X124931850Y-101496300D03*
X124931850Y-102296300D03*
X124931850Y-103096300D03*
X124131850Y-90296302D03*
X124131850Y-91096302D03*
X124131850Y-91896301D03*
X124131850Y-92696301D03*
X124131850Y-93496301D03*
X124131850Y-94296301D03*
X124131850Y-95096301D03*
X124131850Y-95896301D03*
X124131850Y-96696301D03*
X124131850Y-97496301D03*
X124131850Y-98296301D03*
X124131850Y-99096301D03*
X124131850Y-99896301D03*
X124131850Y-100696300D03*
X124131850Y-101496300D03*
X124131850Y-102296300D03*
X124131850Y-103096300D03*
X123331851Y-90296302D03*
X123331851Y-91096302D03*
X123331851Y-91896301D03*
X123331851Y-92696301D03*
X123331851Y-93496301D03*
X123331851Y-94296301D03*
X123331851Y-95096301D03*
X123331851Y-95896301D03*
X123331851Y-96696301D03*
X123331851Y-97496301D03*
X123331851Y-98296301D03*
X123331851Y-99096301D03*
X123331851Y-99896301D03*
X123331851Y-100696300D03*
X123331851Y-101496300D03*
X123331851Y-102296300D03*
X123331851Y-103096300D03*
X122531851Y-90296302D03*
X122531851Y-91096302D03*
X122531851Y-91896301D03*
X122531851Y-92696301D03*
X122531851Y-93496301D03*
X122531851Y-94296301D03*
X122531851Y-95096301D03*
X122531851Y-95896301D03*
X122531851Y-96696301D03*
X122531851Y-97496301D03*
X122531851Y-98296301D03*
X122531851Y-99096301D03*
X122531851Y-99896301D03*
X122531851Y-100696300D03*
X122531851Y-101496300D03*
X122531851Y-102296300D03*
X122531851Y-103096300D03*
X121731851Y-90296302D03*
X121731851Y-91096302D03*
X121731851Y-91896301D03*
X121731851Y-92696301D03*
X121731851Y-93496301D03*
X121731851Y-94296301D03*
X121731851Y-95096301D03*
X121731851Y-95896301D03*
X121731851Y-96696301D03*
X121731851Y-97496301D03*
X121731851Y-98296301D03*
X121731851Y-99096301D03*
X121731851Y-99896301D03*
X121731851Y-100696300D03*
X121731851Y-101496300D03*
X121731851Y-102296300D03*
X121731851Y-103096300D03*
X120931851Y-90296302D03*
X120931851Y-91096302D03*
X120931851Y-91896301D03*
X120931851Y-92696301D03*
X120931851Y-93496301D03*
X120931851Y-94296301D03*
X120931851Y-95096301D03*
X120931851Y-95896301D03*
X120931851Y-96696301D03*
X120931851Y-97496301D03*
X120931851Y-98296301D03*
X120931851Y-99096301D03*
X120931851Y-99896301D03*
X120931851Y-100696300D03*
X120931851Y-101496300D03*
X120931851Y-102296300D03*
X120931851Y-103096300D03*
X120131851Y-90296302D03*
X120131851Y-91096302D03*
X120131851Y-91896301D03*
X120131851Y-92696301D03*
X120131851Y-93496301D03*
X120131851Y-94296301D03*
X120131851Y-95096301D03*
X120131851Y-95896301D03*
X120131851Y-96696301D03*
X120131851Y-97496301D03*
X120131851Y-98296301D03*
X120131851Y-99096301D03*
X120131851Y-99896301D03*
X120131851Y-100696300D03*
X120131851Y-101496300D03*
X120131851Y-102296300D03*
X120131851Y-103096300D03*
X119331851Y-90296302D03*
X119331851Y-91096302D03*
X119331851Y-91896301D03*
X119331851Y-92696301D03*
X119331851Y-93496301D03*
X119331851Y-94296301D03*
X119331851Y-95096301D03*
X119331851Y-95896301D03*
X119331851Y-96696301D03*
X119331851Y-97496301D03*
X119331851Y-98296301D03*
X119331851Y-99096301D03*
X119331851Y-99896301D03*
X119331851Y-100696300D03*
X119331851Y-101496300D03*
X119331851Y-102296300D03*
X119331851Y-103096300D03*
X118531851Y-90296302D03*
X118531851Y-91096302D03*
X118531851Y-91896301D03*
X118531851Y-92696301D03*
X118531851Y-93496301D03*
X118531851Y-94296301D03*
X118531851Y-95096301D03*
X118531851Y-95896301D03*
X118531851Y-96696301D03*
X118531851Y-97496301D03*
X118531851Y-98296301D03*
X118531851Y-99096301D03*
X118531851Y-99896301D03*
X118531851Y-100696300D03*
X118531851Y-101496300D03*
X118531851Y-102296300D03*
X118531851Y-103096300D03*
X117731851Y-90296302D03*
X117731851Y-91096302D03*
X117731851Y-91896301D03*
X117731851Y-92696301D03*
X117731851Y-93496301D03*
X117731851Y-94296301D03*
X117731851Y-95096301D03*
X117731851Y-95896301D03*
X117731851Y-96696301D03*
X117731851Y-97496301D03*
X117731851Y-98296301D03*
X117731851Y-99096301D03*
X117731851Y-99896301D03*
X117731851Y-100696300D03*
X117731851Y-101496300D03*
X117731851Y-102296300D03*
X117731851Y-103096300D03*
X116931851Y-90296302D03*
X116931851Y-91096302D03*
X116931851Y-91896301D03*
X116931851Y-92696301D03*
X116931851Y-93496301D03*
X116931851Y-94296301D03*
X116931851Y-95096301D03*
X116931851Y-95896301D03*
X116931851Y-96696301D03*
X116931851Y-97496301D03*
X116931851Y-98296301D03*
X116931851Y-99096301D03*
X116931851Y-99896301D03*
X116931851Y-100696300D03*
X116931851Y-101496300D03*
X116931851Y-102296300D03*
X116931851Y-103096300D03*
X116131851Y-90296302D03*
X116131851Y-91096302D03*
X116131851Y-91896301D03*
X116131851Y-92696301D03*
X116131851Y-93496301D03*
X116131851Y-94296301D03*
X116131851Y-95096301D03*
X116131851Y-95896301D03*
X116131851Y-96696301D03*
X116131851Y-97496301D03*
X116131851Y-98296301D03*
X116131851Y-99096301D03*
X116131851Y-99896301D03*
X116131851Y-100696300D03*
X116131851Y-101496300D03*
X116131851Y-102296300D03*
X116131851Y-103096300D03*
X115331851Y-90296302D03*
X115331851Y-91096302D03*
X115331851Y-91896301D03*
X115331851Y-92696301D03*
X115331851Y-93496301D03*
X115331851Y-94296301D03*
X115331851Y-95096301D03*
X115331851Y-95896301D03*
X115331851Y-96696301D03*
X115331851Y-97496301D03*
X115331851Y-98296301D03*
X115331851Y-99096301D03*
X115331851Y-99896301D03*
X115331851Y-100696300D03*
X115331851Y-101496300D03*
X115331851Y-102296300D03*
X115331851Y-103096300D03*
X114531852Y-90296302D03*
X114531852Y-91096302D03*
X114531852Y-91896301D03*
X114531852Y-92696301D03*
X114531852Y-93496301D03*
X114531852Y-94296301D03*
X114531852Y-95096301D03*
X114531852Y-95896301D03*
X114531852Y-96696301D03*
X114531852Y-97496301D03*
X114531852Y-98296301D03*
X114531852Y-99096301D03*
X114531852Y-99896301D03*
X114531852Y-100696300D03*
X114531852Y-101496300D03*
X114531852Y-102296300D03*
X114531852Y-103096300D03*
X113731852Y-90296302D03*
X113731852Y-91096302D03*
X113731852Y-91896301D03*
X113731852Y-92696301D03*
X113731852Y-93496301D03*
X113731852Y-94296301D03*
X113731852Y-95096301D03*
X113731852Y-95896301D03*
X113731852Y-96696301D03*
X113731852Y-97496301D03*
X113731852Y-98296301D03*
X113731852Y-99096301D03*
X113731852Y-99896301D03*
X113731852Y-100696300D03*
X113731852Y-101496300D03*
X113731852Y-102296300D03*
X113731852Y-103096300D03*
X112931852Y-90296302D03*
X112931852Y-91096302D03*
X112931852Y-91896301D03*
X112931852Y-92696301D03*
X112931852Y-93496301D03*
X112931852Y-94296301D03*
X112931852Y-95096301D03*
X112931852Y-95896301D03*
X112931852Y-96696301D03*
X112931852Y-97496301D03*
X112931852Y-98296301D03*
X112931852Y-99096301D03*
X112931852Y-99896301D03*
X112931852Y-100696300D03*
X112931852Y-101496300D03*
X112931852Y-102296300D03*
X112931852Y-103096300D03*
X112131852Y-90296302D03*
X112131852Y-91096302D03*
X112131852Y-91896301D03*
X112131852Y-92696301D03*
X112131852Y-93496301D03*
X112131852Y-94296301D03*
X112131852Y-95096301D03*
X112131852Y-95896301D03*
X112131852Y-96696301D03*
X112131852Y-97496301D03*
X112131852Y-98296301D03*
X112131852Y-99096301D03*
X112131852Y-99896301D03*
X112131852Y-100696300D03*
X112131852Y-101496300D03*
X112131852Y-102296300D03*
X112131852Y-103096300D03*
%TD*%
D39*
%TO.C,SW2*%
X105610000Y-103450000D03*
X103400000Y-103450000D03*
X105610000Y-110750000D03*
X103400000Y-110750000D03*
D40*
X106260000Y-104850000D03*
X106260000Y-107850000D03*
X106260000Y-109350000D03*
%TD*%
D41*
%TO.C,D1*%
X105970000Y-87230000D03*
X103170000Y-87230000D03*
%TD*%
D42*
%TO.C,U5*%
X158156220Y-88030251D03*
X157655840Y-88030251D03*
X157155460Y-88030251D03*
X156655080Y-88030251D03*
X156154700Y-88030251D03*
X155654320Y-88030251D03*
X155153940Y-88030251D03*
X154653560Y-88030251D03*
X154153180Y-88030251D03*
X153652800Y-88030251D03*
X153152420Y-88030251D03*
X152652040Y-88030251D03*
X152151660Y-88030251D03*
X151651280Y-88030251D03*
X151150900Y-88030251D03*
X150650520Y-88030251D03*
X150150140Y-88030251D03*
X149649760Y-88030251D03*
X149149380Y-88030251D03*
X148649000Y-88030251D03*
X148148620Y-88030251D03*
X147648240Y-88030251D03*
X147147860Y-88030251D03*
X146647480Y-88030251D03*
X146647480Y-107722347D03*
X147147860Y-107722347D03*
X147648240Y-107722347D03*
X148148620Y-107722347D03*
X148649000Y-107722347D03*
X149149380Y-107722347D03*
X149649760Y-107722347D03*
X150150140Y-107722347D03*
X150650520Y-107722347D03*
X151150900Y-107722347D03*
X151651280Y-107722347D03*
X152151660Y-107722347D03*
X152652040Y-107722347D03*
X153152420Y-107722347D03*
X153652800Y-107722347D03*
X154153180Y-107722347D03*
X154653560Y-107722347D03*
X155153940Y-107722347D03*
X155654320Y-107722347D03*
X156154700Y-107722347D03*
X156655080Y-107722347D03*
X157155460Y-107722347D03*
X157655840Y-107722347D03*
X158156220Y-107722347D03*
%TD*%
D23*
%TO.C,C29*%
X168521850Y-105911299D03*
X168521850Y-104361299D03*
%TD*%
%TO.C,C7*%
X185950000Y-105645000D03*
X185950000Y-104095000D03*
%TD*%
D43*
%TO.C,U7*%
X117988150Y-84583701D03*
D44*
X117900650Y-83083701D03*
D43*
X117988150Y-81583701D03*
%TD*%
D22*
%TO.C,C12*%
X110405000Y-82325000D03*
X110405000Y-83875000D03*
%TD*%
D11*
%TO.C,R25*%
X115255000Y-86550000D03*
X116905000Y-86550000D03*
%TD*%
%TO.C,R24*%
X118530000Y-86550000D03*
X120180000Y-86550000D03*
%TD*%
M02*
