M48
; DRILL file {KiCad 7.0.7} date Mon Mar 25 22:35:46 2024
; FORMAT={-:-/ absolute / inch / decimal}
; #@! TF.CreationDate,2024-03-25T22:35:46+08:00
; #@! TF.GenerationSoftware,Kicad,Pcbnew,7.0.7
; #@! TF.FileFunction,Plated,1,6,PTH
FMAT,2
INCH
; #@! TA.AperFunction,Plated,PTH,ViaDrill
T1C0.0120
; #@! TA.AperFunction,Plated,PTH,ComponentDrill
T2C0.0236
; #@! TA.AperFunction,Plated,PTH,ComponentDrill
T3C0.0315
; #@! TA.AperFunction,Plated,PTH,ComponentDrill
T4C0.0350
; #@! TA.AperFunction,Plated,PTH,ComponentDrill
T5C0.0394
; #@! TA.AperFunction,Plated,PTH,ComponentDrill
T6C0.0402
; #@! TA.AperFunction,Plated,PTH,ComponentDrill
T7C0.0642
; #@! TA.AperFunction,Plated,PTH,ComponentDrill
T8C0.0866
%
G90
G05
T1
X4.1173Y-3.8839
X4.1307Y-3.435
X4.1843Y-4.1713
X4.2496Y-4.0232
X4.2497Y-3.9461
X4.2497Y-4.1052
X4.2835Y-3.8063
X4.2853Y-3.6829
X4.2883Y-4.2042
X4.315Y-3.2409
X4.3154Y-3.3024
X4.3463Y-3.6829
X4.3494Y-4.2047
X4.3565Y-4.2697
X4.3657Y-4.5335
X4.3883Y-4.0274
X4.4115Y-4.2699
X4.4272Y-3.1736
X4.4272Y-3.3642
X4.4304Y-3.5707
X4.4304Y-3.6337
X4.4304Y-3.7597
X4.4304Y-3.8227
X4.4304Y-3.8857
X4.4304Y-3.9487
X4.4304Y-4.0747
X4.4308Y-3.8546
X4.4343Y-4.2697
X4.4619Y-3.8857
X4.4619Y-3.5707
X4.4619Y-3.6337
X4.4619Y-3.7282
X4.4619Y-3.7912
X4.4619Y-3.9487
X4.4619Y-4.0117
X4.4934Y-3.8857
X4.4934Y-3.9802
X4.4934Y-4.0117
X4.5051Y-3.4075
X4.5182Y-4.0806
X4.5189Y-3.4961
X4.5248Y-3.7594
X4.5406Y-4.0807
X4.5564Y-3.5707
X4.5564Y-3.8546
X4.5564Y-3.9172
X4.5564Y-3.9802
X4.5564Y-4.0432
X4.5567Y-3.8224
X4.5874Y-4.0436
X4.5878Y-3.7909
X4.5878Y-3.9482
X4.5879Y-3.9172
X4.5887Y-4.0747
X4.602Y-4.3618
X4.6193Y-3.7598
X4.6193Y-3.7909
X4.6194Y-3.6022
X4.6194Y-3.8857
X4.6194Y-3.9487
X4.6194Y-3.9802
X4.6194Y-4.0117
X4.6194Y-4.0432
X4.6296Y-4.118
X4.6453Y-3.178
X4.6506Y-4.0743
X4.6509Y-3.9172
X4.6513Y-3.9802
X4.6729Y-4.1144
X4.6824Y-3.5707
X4.6824Y-3.6022
X4.6824Y-3.7282
X4.6824Y-3.9172
X4.6824Y-3.9487
X4.6824Y-3.9802
X4.6824Y-4.0117
X4.6824Y-4.0432
X4.6824Y-4.0747
X4.6824Y-3.8854
X4.7138Y-3.5709
X4.7139Y-3.6333
X4.7139Y-3.7282
X4.7139Y-3.7912
X4.7139Y-3.9172
X4.7139Y-3.9487
X4.7139Y-4.0117
X4.7142Y-3.5311
X4.7161Y-4.1119
X4.7162Y-4.2636
X4.7315Y-3.1772
X4.7453Y-4.2634
X4.7453Y-3.6337
X4.7453Y-3.6648
X4.7453Y-3.6967
X4.7453Y-3.7286
X4.7453Y-3.7912
X4.7453Y-3.8227
X4.7453Y-3.8542
X4.7453Y-3.8857
X4.7453Y-3.9172
X4.7453Y-3.9487
X4.7453Y-4.0117
X4.7453Y-4.0432
X4.7453Y-4.0747
X4.7457Y-3.54
X4.7765Y-4.1258
X4.7766Y-4.1022
X4.7768Y-3.5707
X4.7768Y-3.6022
X4.7768Y-3.7597
X4.7768Y-3.7912
X4.7768Y-3.8227
X4.7768Y-3.8542
X4.7768Y-3.8857
X4.7768Y-3.9172
X4.7768Y-3.9487
X4.7768Y-3.9802
X4.7768Y-4.0117
X4.7768Y-4.0432
X4.777Y-3.6337
X4.7772Y-3.7286
X4.7961Y-4.3579
X4.8083Y-3.5707
X4.8083Y-3.6967
X4.8083Y-3.7282
X4.8083Y-3.7597
X4.8083Y-3.8227
X4.8083Y-3.8857
X4.8083Y-3.9172
X4.8083Y-3.9487
X4.8083Y-3.9802
X4.8083Y-4.0117
X4.8083Y-4.0432
X4.8242Y-3.509
X4.8398Y-3.6022
X4.8398Y-3.6337
X4.8398Y-3.6652
X4.8398Y-3.6967
X4.8398Y-3.7282
X4.8398Y-3.7597
X4.8398Y-3.8227
X4.8398Y-3.8542
X4.8398Y-3.9172
X4.8398Y-3.9487
X4.8398Y-3.9802
X4.8398Y-4.0117
X4.8398Y-4.0432
X4.8398Y-4.0747
X4.8556Y-3.5215
X4.8713Y-3.6967
X4.8713Y-3.7282
X4.8713Y-3.7597
X4.8713Y-3.7912
X4.8713Y-3.8227
X4.8713Y-3.8857
X4.8713Y-3.9172
X4.8713Y-3.9487
X4.8713Y-3.9802
X4.8713Y-4.0117
X4.8801Y-3.5266
X4.8929Y-4.3187
X4.8929Y-4.5104
X4.8934Y-4.2156
X4.9028Y-3.7282
X4.9028Y-3.8857
X4.9028Y-3.9172
X4.9028Y-3.9487
X4.9028Y-4.0432
X4.9213Y-3.3311
X4.9264Y-4.2567
X4.9343Y-3.6967
X4.9343Y-3.7282
X4.9343Y-3.8857
X4.9343Y-3.9487
X4.9343Y-4.0432
X4.9343Y-3.8539
X4.9347Y-3.7912
X4.9352Y-3.5114
X4.9473Y-3.7593
X4.948Y-4.3268
X4.9497Y-3.979
X4.9512Y-3.5688
X4.952Y-3.6184
X4.952Y-3.6495
X4.965Y-3.8069
X4.965Y-3.9959
X4.9658Y-3.8859
X4.9757Y-3.7754
X4.9847Y-3.7439
X4.996Y-3.8222
X5.0627Y-3.9806
X5.0713Y-4.0955
X5.0737Y-3.7798
X5.0782Y-3.9174
X5.0819Y-4.3268
X5.0822Y-3.8034
X5.0871Y-3.8538
X5.0922Y-3.9017
X5.1132Y-3.7745
X5.1174Y-4.0388
X5.1265Y-3.7431
X5.1306Y-3.7898
X5.1324Y-3.8542
X5.1379Y-3.9951
X5.1406Y-3.9174
X5.1442Y-4.1054
X5.1469Y-4.3252
X5.1476Y-4.5104
X5.174Y-3.4177
X5.1847Y-4.2983
X5.1993Y-3.418
X5.2004Y-3.2299
X5.2229Y-4.2877
X5.2256Y-3.9173
X5.2308Y-3.9951
X5.2322Y-4.0741
X5.2363Y-3.8053
X5.2371Y-3.4916
X5.2371Y-3.5226
X5.2371Y-3.5538
X5.2371Y-3.5861
X5.2371Y-3.6176
X5.2371Y-3.6488
X5.2373Y-3.6806
X5.2375Y-3.4582
X5.2375Y-3.7121
X5.2469Y-4.0132
X5.2485Y-4.2153
X5.2493Y-4.1841
X5.2568Y-3.4756
X5.2568Y-3.5071
X5.2568Y-3.5383
X5.2568Y-3.6016
X5.2568Y-3.6333
X5.2568Y-3.6646
X5.2568Y-3.6961
X5.2568Y-3.7276
X5.2568Y-3.7588
X5.2658Y-4.0739
X5.2729Y-3.5701
X5.2765Y-3.8225
X5.2859Y-4.0984
X5.2876Y-4.3307
X5.2988Y-3.2495
X5.3056Y-3.8205
X5.3816Y-3.964
X5.3969Y-3.9487
X5.3973Y-3.9806
X5.4024Y-4.51
X5.4522Y-4.1202
X5.4698Y-4.0749
X5.5249Y-3.9597
X5.5253Y-3.9932
X5.5276Y-4.0426
X5.5343Y-3.8943
X5.543Y-3.8221
X5.5453Y-4.1686
X5.5522Y-3.9306
X5.5528Y-3.4443
X5.5603Y-3.7743
X5.562Y-4.0741
X5.5625Y-3.8916
X5.5635Y-4.1371
X5.5639Y-3.9483
X5.5639Y-3.9951
X5.5702Y-3.7432
X5.5812Y-4.1054
X5.5835Y-3.4443
X5.5875Y-3.8852
X5.5885Y-4.2001
X5.6567Y-4.5093
X5.6761Y-3.9164
X5.6768Y-4.2002
X5.6865Y-3.5888
X5.6865Y-3.6646
X5.6865Y-3.6961
X5.687Y-4.2567
X5.6926Y-4.0111
X5.6963Y-3.8536
X5.7016Y-3.8071
X5.7101Y-3.6095
X5.7252Y-3.5886
X5.728Y-3.6337
X5.7528Y-4.2412
X5.7938Y-4.1845
X5.813Y-4.2018
X5.8327Y-4.1589
X5.8327Y-3.7916
X5.8516Y-4.1235
X5.8528Y-3.5184
X5.8721Y-3.5367
X5.8721Y-4.1554
X5.8918Y-3.5209
X5.8918Y-4.1398
X5.8922Y-3.4203
X5.911Y-3.7724
X5.9115Y-3.3885
X5.9118Y-3.5057
X5.9122Y-4.1074
X5.931Y-3.404
X5.9312Y-4.1553
X5.9505Y-3.3876
X5.9508Y-4.1077
X5.9602Y-3.7232
X5.9705Y-3.4128
X5.9705Y-4.1708
X5.9882Y-3.5484
X5.9902Y-4.1075
X5.9902Y-3.4215
X6.0103Y-4.1932
X6.0103Y-4.2877
X6.0103Y-3.5268
X6.0194Y-3.5487
X6.0295Y-4.2988
X6.0296Y-3.5077
X6.03Y-4.0819
X6.0496Y-4.1075
X6.0541Y-3.8197
X6.069Y-4.0825
X6.069Y-4.2877
X6.0694Y-3.4121
X6.0887Y-4.1071
X6.0891Y-3.4026
X6.0979Y-3.8198
X6.1024Y-3.616
X6.1083Y-4.0825
X6.1084Y-4.2877
X6.1088Y-3.3885
X6.1281Y-4.1097
X6.1285Y-3.4191
X6.1324Y-3.6164
X6.1476Y-4.2877
X6.1477Y-4.0825
X6.1616Y-3.7999
X6.1661Y-4.3764
X6.1678Y-4.1089
X6.1871Y-4.1936
X6.2068Y-4.1754
X6.2249Y-3.7805
X6.2265Y-4.0825
X6.2484Y-3.3933
X6.2888Y-3.7604
X6.3319Y-3.5323
X6.3524Y-3.5714
X6.3543Y-4.0118
X6.3713Y-4.1094
X6.378Y-3.8986
X6.3787Y-4.0654
X6.3858Y-3.8789
X6.3888Y-3.7414
X6.3942Y-3.9697
X6.4135Y-3.5714
X6.4139Y-3.9562
X6.4142Y-3.7807
X6.4174Y-3.8395
X6.4335Y-3.9408
X6.4654Y-3.9718
X6.4772Y-3.8
X6.4926Y-3.9718
X6.4981Y-3.7806
X6.5123Y-3.5869
X6.5289Y-3.8539
X6.5319Y-3.6051
X6.5515Y-3.6206
X6.5516Y-3.9718
X6.5712Y-3.6122
X6.5909Y-3.6361
X6.5941Y-3.5323
X6.6107Y-3.7256
X6.6209Y-3.7608
X6.6209Y-3.9378
X6.6248Y-3.8004
X6.6287Y-3.7411
X6.635Y-4.0138
X6.6638Y-4.1697
X6.7205Y-3.8582
X6.7516Y-4.337
X6.8024Y-3.5323
X6.81Y-4.0094
X6.8106Y-3.6028
X6.8128Y-4.4069
X6.8327Y-4.0724
X6.8327Y-4.2472
X6.8524Y-4.2315
X6.8713Y-3.7783
X6.8715Y-3.7016
X6.8715Y-3.839
X6.8715Y-3.9091
X6.872Y-4.2461
X6.9138Y-3.4535
X6.9382Y-4.0988
X6.9382Y-4.1724
X6.9386Y-4.0512
X6.9437Y-4.2583
X6.9437Y-4.2984
X6.9437Y-4.3496
X6.9614Y-4.3228
X6.9772Y-4.5657
X6.9791Y-4.2984
X6.9791Y-4.3496
X6.9795Y-4.2583
X6.9961Y-4.0516
X6.9961Y-4.0976
X7.035Y-4.1736
X7.035Y-4.2583
X7.035Y-4.298
X7.0354Y-4.35
X7.0524Y-4.0756
X7.0524Y-4.3236
X7.0697Y-4.2583
X7.0697Y-4.298
X7.0701Y-4.174
X7.0705Y-4.3504
X7.1106Y-4.0516
X7.1106Y-4.098
X7.1638Y-4.0992
X7.1642Y-4.0508
X7.1642Y-4.174
X7.2429Y-4.2685
X7.4197Y-4.0614
X7.4201Y-4.3634
X7.4228Y-4.1114
X7.4358Y-4.5894
X7.4441Y-3.2768
X7.4441Y-3.9803
X7.5276Y-4.1626
X7.528Y-4.2807
T3
X4.287Y-4.4051
X4.287Y-4.4839
X4.3657Y-4.4051
X4.3657Y-4.4839
X4.4445Y-4.4051
X4.4445Y-4.4839
X4.5232Y-4.4051
X4.5232Y-4.4839
X4.602Y-4.4051
X4.602Y-4.4839
T4
X6.9764Y-3.4535
X6.9764Y-3.5535
X6.9764Y-3.6535
X6.9764Y-3.7535
X7.0764Y-3.5035
X7.0764Y-3.6035
X7.0764Y-3.7035
X7.0764Y-3.8035
T5
X6.0031Y-3.1299
X6.1031Y-3.1299
X6.2031Y-3.1299
X6.3031Y-3.1299
X6.4031Y-3.1299
X6.5031Y-3.1299
X6.6031Y-3.1299
T6
X7.5193Y-3.3675
X7.5193Y-3.4675
X7.5193Y-3.7891
X7.5193Y-3.8891
T7
X7.2063Y-3.3234
X7.2063Y-3.9332
T8
X4.1094Y-3.1622
X4.1094Y-4.537
X5.8402Y-3.1622
X5.8402Y-4.537
X6.7657Y-3.1622
X6.7657Y-4.537
X7.6496Y-3.1622
X7.6496Y-4.537
T2
G00X7.4573Y-4.0614
M15
G01X7.5006Y-4.0614
M16
G05
G00X7.4573Y-4.4016
M15
G01X7.5006Y-4.4016
M16
G05
G00X7.6317Y-4.0614
M15
G01X7.6553Y-4.0614
M16
G05
G00X7.6317Y-4.4016
M15
G01X7.6553Y-4.4016
M16
G05
T0
M30
