%TF.GenerationSoftware,KiCad,Pcbnew,7.0.7*%
%TF.CreationDate,2024-03-25T22:36:03+08:00*%
%TF.ProjectId,eins2440,65696e73-3234-4343-902e-6b696361645f,rev?*%
%TF.SameCoordinates,Original*%
%TF.FileFunction,Paste,Bot*%
%TF.FilePolarity,Positive*%
%FSLAX46Y46*%
G04 Gerber Fmt 4.6, Leading zero omitted, Abs format (unit mm)*
G04 Created by KiCad (PCBNEW 7.0.7) date 2024-03-25 22:36:03*
%MOMM*%
%LPD*%
G01*
G04 APERTURE LIST*
G04 Aperture macros list*
%AMRoundRect*
0 Rectangle with rounded corners*
0 $1 Rounding radius*
0 $2 $3 $4 $5 $6 $7 $8 $9 X,Y pos of 4 corners*
0 Add a 4 corners polygon primitive as box body*
4,1,4,$2,$3,$4,$5,$6,$7,$8,$9,$2,$3,0*
0 Add four circle primitives for the rounded corners*
1,1,$1+$1,$2,$3*
1,1,$1+$1,$4,$5*
1,1,$1+$1,$6,$7*
1,1,$1+$1,$8,$9*
0 Add four rect primitives between the rounded corners*
20,1,$1+$1,$2,$3,$4,$5,0*
20,1,$1+$1,$4,$5,$6,$7,0*
20,1,$1+$1,$6,$7,$8,$9,0*
20,1,$1+$1,$8,$9,$2,$3,0*%
G04 Aperture macros list end*
%ADD10RoundRect,0.200000X0.200000X0.275000X-0.200000X0.275000X-0.200000X-0.275000X0.200000X-0.275000X0*%
%ADD11RoundRect,0.225000X0.225000X0.250000X-0.225000X0.250000X-0.225000X-0.250000X0.225000X-0.250000X0*%
%ADD12RoundRect,0.200000X0.275000X-0.200000X0.275000X0.200000X-0.275000X0.200000X-0.275000X-0.200000X0*%
%ADD13RoundRect,0.225000X-0.335876X-0.017678X-0.017678X-0.335876X0.335876X0.017678X0.017678X0.335876X0*%
%ADD14RoundRect,0.225000X-0.225000X-0.250000X0.225000X-0.250000X0.225000X0.250000X-0.225000X0.250000X0*%
%ADD15RoundRect,0.225000X-0.250000X0.225000X-0.250000X-0.225000X0.250000X-0.225000X0.250000X0.225000X0*%
%ADD16RoundRect,0.225000X0.335876X0.017678X0.017678X0.335876X-0.335876X-0.017678X-0.017678X-0.335876X0*%
%ADD17R,1.309599X0.456400*%
%ADD18RoundRect,0.200000X-0.275000X0.200000X-0.275000X-0.200000X0.275000X-0.200000X0.275000X0.200000X0*%
%ADD19RoundRect,0.200000X0.053033X-0.335876X0.335876X-0.053033X-0.053033X0.335876X-0.335876X0.053033X0*%
%ADD20RoundRect,0.200000X-0.200000X-0.275000X0.200000X-0.275000X0.200000X0.275000X-0.200000X0.275000X0*%
%ADD21R,0.279400X1.200899*%
%ADD22RoundRect,0.225000X0.250000X-0.225000X0.250000X0.225000X-0.250000X0.225000X-0.250000X-0.225000X0*%
%ADD23RoundRect,0.225000X-0.017678X0.335876X-0.335876X0.017678X0.017678X-0.335876X0.335876X-0.017678X0*%
G04 APERTURE END LIST*
D10*
%TO.C,R44*%
X110436850Y-101456299D03*
X108786850Y-101456299D03*
%TD*%
D11*
%TO.C,C43*%
X167395000Y-99270000D03*
X165845000Y-99270000D03*
%TD*%
D12*
%TO.C,R21*%
X114401850Y-107631299D03*
X114401850Y-105981299D03*
%TD*%
D13*
%TO.C,C17*%
X118223842Y-92368291D03*
X119319858Y-93464307D03*
%TD*%
D12*
%TO.C,R13*%
X108111850Y-107621299D03*
X108111850Y-105971299D03*
%TD*%
D14*
%TO.C,C35*%
X156355000Y-86190000D03*
X157905000Y-86190000D03*
%TD*%
D10*
%TO.C,R42*%
X110436850Y-94906299D03*
X108786850Y-94906299D03*
%TD*%
D12*
%TO.C,R20*%
X112821850Y-107631299D03*
X112821850Y-105981299D03*
%TD*%
D10*
%TO.C,R7*%
X153785000Y-85560000D03*
X152135000Y-85560000D03*
%TD*%
%TO.C,R3*%
X129326850Y-90646299D03*
X127676850Y-90646299D03*
%TD*%
D15*
%TO.C,C41*%
X163940000Y-97525000D03*
X163940000Y-99075000D03*
%TD*%
D16*
%TO.C,C23*%
X114719858Y-94454307D03*
X113623842Y-93358291D03*
%TD*%
D11*
%TO.C,C42*%
X167385000Y-96540000D03*
X165835000Y-96540000D03*
%TD*%
D12*
%TO.C,R19*%
X111251850Y-107626299D03*
X111251850Y-105976299D03*
%TD*%
D17*
%TO.C,U3*%
X131682650Y-108282599D03*
X131682650Y-107482499D03*
X131682650Y-106682399D03*
X131682650Y-105882299D03*
X131682650Y-105082199D03*
X131682650Y-104282099D03*
X131682650Y-103481999D03*
X131682650Y-102681899D03*
X131682650Y-101881799D03*
X131682650Y-101081699D03*
X131682650Y-100281599D03*
X131682650Y-99481499D03*
X131682650Y-98681399D03*
X131682650Y-97881299D03*
X131682650Y-97081199D03*
X131682650Y-96281099D03*
X131682650Y-95480999D03*
X131682650Y-94680899D03*
X131682650Y-93880799D03*
X131682650Y-93080699D03*
X131682650Y-92280599D03*
X131682650Y-91480499D03*
X131682650Y-90680399D03*
X131682650Y-89880299D03*
X131682650Y-89080199D03*
X131682650Y-88280099D03*
X131682650Y-87479999D03*
X143011050Y-87479999D03*
X143011050Y-88280099D03*
X143011050Y-89080199D03*
X143011050Y-89880299D03*
X143011050Y-90680399D03*
X143011050Y-91480499D03*
X143011050Y-92280599D03*
X143011050Y-93080699D03*
X143011050Y-93880799D03*
X143011050Y-94680899D03*
X143011050Y-95480999D03*
X143011050Y-96281099D03*
X143011050Y-97081199D03*
X143011050Y-97881299D03*
X143011050Y-98681399D03*
X143011050Y-99481499D03*
X143011050Y-100281599D03*
X143011050Y-101081699D03*
X143011050Y-101881799D03*
X143011050Y-102681899D03*
X143011050Y-103481999D03*
X143011050Y-104282099D03*
X143011050Y-105082199D03*
X143011050Y-105882299D03*
X143011050Y-106682399D03*
X143011050Y-107482499D03*
X143011050Y-108282599D03*
%TD*%
D18*
%TO.C,R37*%
X189080000Y-98795000D03*
X189080000Y-100445000D03*
%TD*%
D19*
%TO.C,R5*%
X116268487Y-95239662D03*
X117435213Y-94072936D03*
%TD*%
D20*
%TO.C,R45*%
X191210000Y-105720000D03*
X192860000Y-105720000D03*
%TD*%
D21*
%TO.C,U4*%
X146657480Y-88040251D03*
X147157860Y-88040251D03*
X147658240Y-88040251D03*
X148158620Y-88040251D03*
X148659000Y-88040251D03*
X149159380Y-88040251D03*
X149659760Y-88040251D03*
X150160140Y-88040251D03*
X150660520Y-88040251D03*
X151160900Y-88040251D03*
X151661280Y-88040251D03*
X152161660Y-88040251D03*
X152662040Y-88040251D03*
X153162420Y-88040251D03*
X153662800Y-88040251D03*
X154163180Y-88040251D03*
X154663560Y-88040251D03*
X155163940Y-88040251D03*
X155664320Y-88040251D03*
X156164700Y-88040251D03*
X156665080Y-88040251D03*
X157165460Y-88040251D03*
X157665840Y-88040251D03*
X158166220Y-88040251D03*
X158166220Y-107732347D03*
X157665840Y-107732347D03*
X157165460Y-107732347D03*
X156665080Y-107732347D03*
X156164700Y-107732347D03*
X155664320Y-107732347D03*
X155163940Y-107732347D03*
X154663560Y-107732347D03*
X154163180Y-107732347D03*
X153662800Y-107732347D03*
X153162420Y-107732347D03*
X152662040Y-107732347D03*
X152161660Y-107732347D03*
X151661280Y-107732347D03*
X151160900Y-107732347D03*
X150660520Y-107732347D03*
X150160140Y-107732347D03*
X149659760Y-107732347D03*
X149159380Y-107732347D03*
X148659000Y-107732347D03*
X148158620Y-107732347D03*
X147658240Y-107732347D03*
X147157860Y-107732347D03*
X146657480Y-107732347D03*
%TD*%
D11*
%TO.C,C24*%
X110386850Y-103031299D03*
X108836850Y-103031299D03*
%TD*%
D20*
%TO.C,R40*%
X108796850Y-96681299D03*
X110446850Y-96681299D03*
%TD*%
D12*
%TO.C,R14*%
X109681850Y-107621299D03*
X109681850Y-105971299D03*
%TD*%
D22*
%TO.C,C14*%
X120530000Y-106945000D03*
X120530000Y-105395000D03*
%TD*%
D10*
%TO.C,R43*%
X110436850Y-98231299D03*
X108786850Y-98231299D03*
%TD*%
D11*
%TO.C,C39*%
X165345000Y-101930000D03*
X163795000Y-101930000D03*
%TD*%
D23*
%TO.C,C13*%
X115059858Y-96438291D03*
X113963842Y-97534307D03*
%TD*%
D20*
%TO.C,R41*%
X108786850Y-99906299D03*
X110436850Y-99906299D03*
%TD*%
D13*
%TO.C,C15*%
X114263842Y-91328291D03*
X115359858Y-92424307D03*
%TD*%
D20*
%TO.C,R1*%
X152125000Y-84000000D03*
X153775000Y-84000000D03*
%TD*%
D14*
%TO.C,C20*%
X116585000Y-97920000D03*
X118135000Y-97920000D03*
%TD*%
D12*
%TO.C,R38*%
X189080000Y-85535000D03*
X189080000Y-83885000D03*
%TD*%
D10*
%TO.C,R12*%
X192870000Y-108720000D03*
X191220000Y-108720000D03*
%TD*%
D11*
%TO.C,C34*%
X133236850Y-110206299D03*
X131686850Y-110206299D03*
%TD*%
D10*
%TO.C,R11*%
X129326850Y-89116299D03*
X127676850Y-89116299D03*
%TD*%
%TO.C,R2*%
X129306850Y-92276299D03*
X127656850Y-92276299D03*
%TD*%
D20*
%TO.C,R4*%
X120055000Y-88450000D03*
X121705000Y-88450000D03*
%TD*%
M02*
